<?xml version="1.0" encoding="UTF-8"?>
<svg width="1200pt" height="1200pt" version="1.1" viewBox="0 0 1200 1200" xmlns="http://www.w3.org/2000/svg">
 <path d="m815.53 539.53c86.062 0 156-69.938 156-156s-69.938-156-156-156-156 69.938-156 156 69.938 156 156 156zm0-240c46.312 0 84 37.688 84 84s-37.688 84-84 84-84-37.688-84-84 37.688-84 84-84z"/>
 <path d="m264 528.47c19.781 0 36-16.219 36-36 0-38.766 0.23438-70.312 3.6094-94.781 4.2188-30.234 12.609-49.922 28.078-65.531 15.375-15.375 35.531-24 65.391-27.938 24.609-3.375 56.156-3.6094 94.781-3.6094 19.781 0 36-16.219 36-36s-16.219-36-36-36c-41.531 0-75.469 0.375-104.39 4.3125-29.062 3.8438-71.531 13.078-106.78 48.609-35.156 35.297-44.531 77.766-48.375 106.55-3.9375 29.062-4.3125 63.141-4.3125 104.62 0 19.781 16.219 36 36 36z"/>
 <path d="m936 672.47c-19.781 0-36 16.219-36 36 0 38.625-0.23438 70.219-3.6094 94.781-4.2188 30.375-12.609 49.922-28.219 65.531-15.234 15.375-35.531 24-65.391 27.938-24.609 3.375-56.156 3.6094-94.781 3.6094-19.781 0-36 16.219-36 36s16.219 36 36 36c41.531 0 75.469-0.375 104.39-4.3125 29.062-3.8438 71.531-13.078 106.78-48.609 35.156-35.297 44.531-77.766 48.469-106.55 3.9375-29.156 4.3125-63.141 4.3125-104.53 0-19.781-16.219-36-36-36z"/>
 <path d="m480 900c0 19.781 16.219 36 36 36s36-16.219 36-36v-144c0-59.531-48.469-108-108-108h-144c-19.781 0-36 16.219-36 36s16.219 36 36 36h129.14l-166.55 166.55c-14.062 14.062-14.062 36.844 0 50.859 14.062 14.062 37.312 13.547 50.859 0l166.55-166.55z"/>
</svg>
