<?xml version="1.0" encoding="UTF-8"?>
<svg width="1200pt" height="1200pt" version="1.1" viewBox="0 0 1200 1200" xmlns="http://www.w3.org/2000/svg">
 <path d="m720 480h-252c-19.781 0-36 16.219-36 36s16.219 36 36 36h252c19.781 0 36-16.219 36-36s-16.219-36-36-36z"/>
 <path d="m684 660h-180c-19.781 0-36 16.219-36 36s16.219 36 36 36h180c19.781 0 36-16.219 36-36s-16.219-36-36-36z"/>
 <path d="m888 228h-56.297c-74.391 0-145.69 22.078-206.06 63.844-15.375 10.688-36 10.688-51.375 0-60.469-41.766-131.63-63.844-206.06-63.844h-56.297c-46.312 0-84 37.688-84 84v504c0 46.312 37.688 84 84 84h66.234c51.938 0 104.53 17.531 156.24 51.938 39.234 26.156 91.922 26.156 131.06 0 51.703-34.547 104.3-51.938 156.24-51.938h66.234c46.312 0 84-37.688 84-84l0.09375-504c0-46.312-37.688-84-84-84zm12 600h-78.234c-66.469 0-132.47 21.609-196.31 64.219-7.6875 5.1562-16.547 7.7812-25.453 7.7812-8.8594 0-17.766-2.625-25.547-7.7812-63.703-42.469-129.71-64.078-196.22-64.078h-78.234v-528.14h68.297c59.625 0 116.77 17.625 165.14 51.141 39.609 27.375 93.703 27.375 133.31 0 48.375-33.469 105.47-51.141 165.14-51.141h68.297v528z"/>
</svg>
