<?xml version="1.0" encoding="UTF-8"?>
<svg width="1200pt" height="1200pt" version="1.1" viewBox="0 0 1200 1200" xmlns="http://www.w3.org/2000/svg">
 <path d="m228 745.22c1.5469 64.781 7.2188 112.22 30.375 146.86 13.219 19.781 29.859 36.469 49.688 49.688 34.688 23.156 81.938 28.781 147.14 30.375l0.84375 12v-12c19.312 0 35.531-15.703 36-35.156 0.46875-19.781-15.234-36.375-35.156-36.844-60.141-1.4531-91.688-6.7031-108.84-18.234-11.859-7.9219-21.844-17.859-29.766-29.766-11.531-17.297-16.781-48.469-18.234-107.77v-287.16c1.4531-60.375 6.7031-91.922 18.141-109.08 7.9219-11.859 18-21.844 29.766-29.766 17.297-11.531 48.844-16.781 108.84-18.234 19.781-0.46875 35.625-17.062 35.156-36.844-0.23438-9.8438-4.3125-18.938-11.391-25.688-6.6094-6.1406-15-9.4688-23.859-9.4688h-1.4531c-65.297 1.5469-112.69 7.2188-147.37 30.375-19.781 13.219-36.469 29.859-49.688 49.688-23.156 34.688-28.781 82.453-30.375 148.31v288.84z"/>
 <path d="m972 454.92c-1.5469-64.781-7.2188-112.22-30.375-146.86-13.219-19.781-29.859-36.469-49.688-49.688-34.688-23.156-81.938-28.781-147.14-30.375h-1.5469c-9 0-17.297 3.375-23.766 9.375-7.2188 6.7031-11.297 15.844-11.531 25.781-0.46875 19.781 15.234 36.375 35.156 36.844 60.141 1.4531 91.688 6.7031 108.84 18.234 11.859 7.9219 21.938 18 29.766 29.859 11.531 17.297 16.781 48.469 18.234 107.77v287.16c-1.4531 60.375-6.7031 91.922-18.141 109.08-7.9219 11.859-18 21.844-29.766 29.766-17.297 11.531-48.844 16.781-108.84 18.234-19.781 0.46875-35.625 17.062-35.156 36.844 0.46875 19.312 16.547 35.156 36 35.156v12l0.84375-12c65.156-1.5469 112.55-7.2188 147.24-30.375 19.781-13.219 36.469-29.859 49.688-49.688 23.156-34.688 28.781-82.453 30.375-148.31v-288.84z"/>
 <path d="m432 504c0 19.781 16.219 36 36 36h264c19.781 0 36-16.219 36-36s-16.219-36-36-36h-264c-19.781 0-36 16.219-36 36z"/>
 <path d="m516 732h168c19.781 0 36-16.219 36-36s-16.219-36-36-36h-168c-19.781 0-36 16.219-36 36s16.219 36 36 36z"/>
</svg>
